<svg xmlns="http://www.w3.org/2000/svg" xml:space="preserve" style="enable-background:new 0 0 50 50" viewBox="0 0 50 50"><style>.st0{fill:none;stroke:#248ce2;stroke-width:3;stroke-linecap:round;stroke-miterlimit:10}</style><path d="M20 17.7c-1.2-.6-2.5-1-3.9-1-4.6 0-8.3 3.7-8.3 8.3s3.7 8.3 8.3 8.3c1.4 0 2.7-.3 3.9-1 2.6-1.4 4.4-4.1 4.4-7.3 0-4.6 3.7-8.3 8.3-8.3S41 20.4 41 25" class="st0"/><path d="M41 25c0-4.6-3.7-8.3-8.3-8.3s-8.3 3.7-8.3 8.3 3.7 8.3 8.3 8.3S41 29.6 41 25h0z" class="st0"/><path d="M41 25v4.9c0 1.9 1.5 3.4 3.4 3.4 1.6 0 2.9-1.1 3.3-2.6h0c.5-1.9.7-3.7.7-5.7C48.3 12.1 37.9 1.6 25 1.6S1.6 12.1 1.6 25 12.1 48.3 25 48.3c7.5 0 14.1-3.5 18.4-9" class="st0"/></svg>